# xmcd CD database file
#
# Track frame offsets:
#	150
#	17654
#	38385
#	52537
#	64822
#	77212
#	87247
#	107385
#	120322
#	142485
#	158856
#	173437
#
# Disc length: 2539 seconds
#
# Revision: 0
# Processed by: cddbd v1.5.2PL0 Copyright (c) Steve Scherf et al.
# Submitted via: CDex 1.51
#
DISCID=8609e90c
DTITLE=Dynamo's Rhythm Aces - La Classe Difference
DYEAR=2000
DGENRE=Blues
TTITLE0=Under The Bridge
TTITLE1=Dancing In The Dark
TTITLE2=Too Hot To Handle
TTITLE3=Teenage Kicks
TTITLE4=Jump
TTITLE5=Ace Of Spades
TTITLE6=Boy From New York City
TTITLE7=Panic
TTITLE8=Hey Joe
TTITLE9=My Generation
TTITLE10=Mony Mony
TTITLE11=Don't Stop Me Know
EXTD=YEAR: 2000
EXTT0=
EXTT1=
EXTT2=
EXTT3=
EXTT4=
EXTT5=
EXTT6=
EXTT7=
EXTT8=
EXTT9=
EXTT10=
EXTT11=
PLAYORDER=
